<svg width="940" height="1282" viewBox="0 0 940 1282" fill="none" xmlns="http://www.w3.org/2000/svg">
<mask id="path-1-inside-1_61_398" fill="white">
<path d="M862 0C905.078 1.03082e-06 940 34.9218 940 78V1204C940 1247.08 905.078 1282 862 1282H78C34.9218 1282 0 1247.08 0 1204V78C1.43689e-05 34.9218 34.9218 1.03082e-06 78 0H862ZM470 56C445.699 56 426 75.6995 426 100C426 124.301 445.699 144 470 144C494.301 144 514 124.301 514 100C514 75.6995 494.301 56 470 56Z"/>
</mask>
<path d="M862 0C905.078 1.03082e-06 940 34.9218 940 78V1204C940 1247.08 905.078 1282 862 1282H78C34.9218 1282 0 1247.08 0 1204V78C1.43689e-05 34.9218 34.9218 1.03082e-06 78 0H862ZM470 56C445.699 56 426 75.6995 426 100C426 124.301 445.699 144 470 144C494.301 144 514 124.301 514 100C514 75.6995 494.301 56 470 56Z" fill="white"/>
</svg>
